<svg xmlns="http://www.w3.org/2000/svg" width="64" height="60" viewBox="0 0 64 60">
  <g id="Group_2377" data-name="Group 2377" transform="translate(-337.75 -1405)">
    <rect id="Rectangle_1880" data-name="Rectangle 1880" width="64" height="59" transform="translate(337.75 1405)" fill="#fff"/>
    <g id="_8168678_credit_card_payment_shopping_icon" data-name="8168678_credit_card_payment_shopping_icon" transform="translate(340 1405)">
      <rect id="Rectangle_1884" data-name="Rectangle 1884" width="60" height="60" rx="10" fill="#fff"/>
      <rect id="Rectangle_1885" data-name="Rectangle 1885" width="44" height="32" rx="4" transform="translate(8 14)" fill="#f1f3f4"/>
      <path id="Path_1193" data-name="Path 1193" d="M52,23.5H8a1.5,1.5,0,0,1,0-3H52a1.5,1.5,0,0,1,0,3Z" fill="#8d9cf4"/>
      <circle id="Ellipse_175" data-name="Ellipse 175" cx="4" cy="4" r="4" transform="translate(38 30)" fill="#eff28d"/>
      <path id="Path_1194" data-name="Path 1194" d="M42,39.5A5.5,5.5,0,1,1,47.5,34,5.5,5.5,0,0,1,42,39.5Zm0-8A2.5,2.5,0,1,0,44.5,34,2.5,2.5,0,0,0,42,31.5Z" fill="#f28080"/>
      <circle id="Ellipse_176" data-name="Ellipse 176" cx="4" cy="4" r="4" transform="translate(30 30)" fill="#c1f7fd"/>
      <path id="Path_1195" data-name="Path 1195" d="M34,39.5A5.5,5.5,0,1,1,39.5,34,5.5,5.5,0,0,1,34,39.5Zm0-8A2.5,2.5,0,1,0,36.5,34,2.5,2.5,0,0,0,34,31.5Z" fill="#8d9cf4"/>
      <path id="Path_1196" data-name="Path 1196" d="M48,47.5H12A5.506,5.506,0,0,1,6.5,42V18A5.506,5.506,0,0,1,12,12.5H48A5.506,5.506,0,0,1,53.5,18V42A5.506,5.506,0,0,1,48,47.5Zm-36-32A2.5,2.5,0,0,0,9.5,18V42A2.5,2.5,0,0,0,12,44.5H48A2.5,2.5,0,0,0,50.5,42V18A2.5,2.5,0,0,0,48,15.5Z" fill="#f28080"/>
      <path id="Path_1197" data-name="Path 1197" d="M8,43.5A1.5,1.5,0,0,1,6.5,42V18A5.506,5.506,0,0,1,12,12.5H48a1.5,1.5,0,0,1,0,3H12A2.5,2.5,0,0,0,9.5,18V42A1.5,1.5,0,0,1,8,43.5Z" fill="#f2bf80"/>
    </g>
  </g>
</svg>
