<svg xmlns="http://www.w3.org/2000/svg" width="19" height="19" viewBox="0 0 19 19">
  <path id="ic_settings_phone_24px" d="M13.556,9.333H11.444v2.111h2.111Zm4.222,0H15.667v2.111h2.111Zm3.167,6.861a11.991,11.991,0,0,1-3.768-.6,1.077,1.077,0,0,0-1.077.253l-2.322,2.322a15.912,15.912,0,0,1-6.956-6.946L9.143,8.89a1.036,1.036,0,0,0,.264-1.066,11.992,11.992,0,0,1-.6-3.768A1.059,1.059,0,0,0,7.75,3H4.056A1.059,1.059,0,0,0,3,4.056,17.943,17.943,0,0,0,20.944,22,1.059,1.059,0,0,0,22,20.944V17.25A1.059,1.059,0,0,0,20.944,16.194ZM19.889,9.333v2.111H22V9.333Z" transform="translate(-3 -3)"/>
</svg>
