<svg xmlns="http://www.w3.org/2000/svg" width="15.64" height="15.637" viewBox="0 0 15.64 15.637">
  <path id="Icon_awesome-instagram" data-name="Icon awesome-instagram" d="M7.816,6.047a4.009,4.009,0,1,0,4.009,4.009A4,4,0,0,0,7.816,6.047Zm0,6.615a2.606,2.606,0,1,1,2.606-2.606A2.611,2.611,0,0,1,7.816,12.662Zm5.108-6.779a.935.935,0,1,1-.935-.935A.933.933,0,0,1,12.925,5.883Zm2.655.949a4.628,4.628,0,0,0-1.263-3.276A4.658,4.658,0,0,0,11.04,2.293c-1.291-.073-5.16-.073-6.451,0a4.651,4.651,0,0,0-3.276,1.26A4.643,4.643,0,0,0,.05,6.829c-.073,1.291-.073,5.16,0,6.451a4.627,4.627,0,0,0,1.263,3.276,4.664,4.664,0,0,0,3.276,1.263c1.291.073,5.16.073,6.451,0a4.627,4.627,0,0,0,3.276-1.263A4.658,4.658,0,0,0,15.58,13.28c.073-1.291.073-5.157,0-6.448Zm-1.668,7.833a2.639,2.639,0,0,1-1.486,1.486,17.233,17.233,0,0,1-4.609.314,17.367,17.367,0,0,1-4.609-.314,2.639,2.639,0,0,1-1.486-1.486,17.233,17.233,0,0,1-.314-4.609,17.367,17.367,0,0,1,.314-4.609A2.639,2.639,0,0,1,3.207,3.96a17.233,17.233,0,0,1,4.609-.314,17.367,17.367,0,0,1,4.609.314,2.639,2.639,0,0,1,1.486,1.486,17.233,17.233,0,0,1,.314,4.609A17.223,17.223,0,0,1,13.912,14.665Z" transform="translate(0.005 -2.238)" fill="#fff"/>
</svg>
