<svg xmlns="http://www.w3.org/2000/svg" width="60" height="60" viewBox="0 0 60 60">
  <g id="Group_2385" data-name="Group 2385" transform="translate(-1330.75 -1405)">
    <rect id="Rectangle_1884" data-name="Rectangle 1884" width="60" height="60" rx="10" transform="translate(1330.75 1405)" fill="#fff"/>
    <g id="_x31_9-Jacket" transform="translate(1341.764 1417.783)">
      <g id="Group_2384" data-name="Group 2384" transform="translate(0)">
        <g id="Group_2379" data-name="Group 2379" transform="translate(1.128 24.83)">
          <path id="Path_1209" data-name="Path 1209" d="M27.025,455.66,20.5,454.6l.538-3.308,6.524,1.061Z" transform="translate(-20.501 -451.291)" fill="#ee6c00"/>
          <path id="Path_1210" data-name="Path 1210" d="M537.024,455.66l6.524-1.061-.538-3.308-6.524,1.061Z" transform="translate(-508.096 -451.291)" fill="#ee6c00"/>
        </g>
        <path id="Path_1211" data-name="Path 1211" d="M247.029,0h-9.323a1.178,1.178,0,0,0-1.178,1.178V5.571a1.178,1.178,0,0,0,1.178,1.178h9.323a1.178,1.178,0,0,0,1.178-1.178V1.178A1.178,1.178,0,0,0,247.029,0Z" transform="translate(-223.514 0)" fill="#f47c00"/>
        <path id="Path_1212" data-name="Path 1212" d="M396.5,0h-1.8a1.178,1.178,0,0,1,1.178,1.178V5.571A1.178,1.178,0,0,1,394.7,6.749h1.8a1.178,1.178,0,0,0,1.178-1.178V1.178A1.178,1.178,0,0,0,396.5,0Z" transform="translate(-372.983 0)" fill="#ee6c00"/>
        <g id="Group_2382" data-name="Group 2382" transform="translate(0 4.738)">
          <g id="Group_2380" data-name="Group 2380" transform="translate(23.313 0)">
            <path id="Path_1213" data-name="Path 1213" d="M434.848,88.976a3.651,3.651,0,0,0-4.338-2.78l-3.919.849a3.637,3.637,0,1,0,1.548,7.108l3.919-.849a3.638,3.638,0,0,0,2.79-4.328Z" transform="translate(-423.717 -86.114)" fill="#f28400"/>
            <path id="Path_1214" data-name="Path 1214" d="M454.5,178.987a3.652,3.652,0,0,0-4.338-2.78l-3.919.85a3.637,3.637,0,1,0,1.548,7.108l3.919-.85a3.637,3.637,0,0,0,2.79-4.328Z" transform="translate(-442.285 -171.172)" fill="#f47c00"/>
            <path id="Path_1215" data-name="Path 1215" d="M473.56,266.313a3.652,3.652,0,0,0-4.338-2.78l-3.919.85a3.637,3.637,0,1,0,1.548,7.108l3.919-.85a3.638,3.638,0,0,0,2.79-4.328Z" transform="translate(-460.299 -253.693)" fill="#f28400"/>
            <path id="Path_1216" data-name="Path 1216" d="M492.623,353.639a3.651,3.651,0,0,0-4.338-2.78l-3.919.849a3.637,3.637,0,1,0,1.548,7.108l3.919-.85a3.638,3.638,0,0,0,2.79-4.328Z" transform="translate(-478.313 -336.214)" fill="#f47c00"/>
          </g>
          <g id="Group_2381" data-name="Group 2381">
            <path id="Path_1217" data-name="Path 1217" d="M68.413,88.636a3.624,3.624,0,0,0-2.3-1.592L62.2,86.195a3.65,3.65,0,0,0-4.338,2.78A3.638,3.638,0,0,0,60.65,93.3l3.919.849a3.648,3.648,0,0,0,4.338-2.78A3.607,3.607,0,0,0,68.413,88.636Z" transform="translate(-54.597 -86.111)" fill="#f28400"/>
            <path id="Path_1218" data-name="Path 1218" d="M48.764,178.649a3.624,3.624,0,0,0-2.3-1.592l-3.919-.85a3.651,3.651,0,0,0-4.338,2.78A3.638,3.638,0,0,0,41,183.315l3.919.85a3.648,3.648,0,0,0,4.338-2.78A3.607,3.607,0,0,0,48.764,178.649Z" transform="translate(-36.029 -171.172)" fill="#f47c00"/>
            <path id="Path_1219" data-name="Path 1219" d="M29.7,265.976a3.624,3.624,0,0,0-2.3-1.592l-3.919-.85a3.651,3.651,0,0,0-4.338,2.78,3.638,3.638,0,0,0,2.79,4.328l3.919.85a3.648,3.648,0,0,0,4.338-2.78A3.608,3.608,0,0,0,29.7,265.976Z" transform="translate(-18.015 -253.694)" fill="#f28400"/>
            <path id="Path_1220" data-name="Path 1220" d="M10.637,353.3a3.624,3.624,0,0,0-2.3-1.592l-3.919-.85a3.65,3.65,0,0,0-4.338,2.78,3.638,3.638,0,0,0,2.79,4.328l3.919.85a3.648,3.648,0,0,0,4.338-2.78A3.607,3.607,0,0,0,10.637,353.3Z" transform="translate(0 -336.212)" fill="#f47c00"/>
          </g>
        </g>
        <path id="Path_1221" data-name="Path 1221" d="M139.659,79.829H123.411a4.169,4.169,0,1,0,0,8.338h16.247a4.169,4.169,0,1,0,0-8.338Z" transform="translate(-112.681 -75.437)" fill="#fe9700"/>
        <path id="Path_1222" data-name="Path 1222" d="M442.249,79.829h-2.8a4.169,4.169,0,1,1,0,8.338h2.8a4.169,4.169,0,1,0,0-8.338Z" transform="translate(-415.272 -75.437)" fill="#fe8e00"/>
        <path id="Path_1223" data-name="Path 1223" d="M139.659,191.886H123.411a4.169,4.169,0,1,0,0,8.338h16.247a4.169,4.169,0,1,0,0-8.338Z" transform="translate(-112.681 -181.328)" fill="#feb200"/>
        <path id="Path_1224" data-name="Path 1224" d="M442.249,191.886h-2.8a4.169,4.169,0,1,1,0,8.338h2.8a4.169,4.169,0,1,0,0-8.338Z" transform="translate(-415.272 -181.328)" fill="#feaa00"/>
        <path id="Path_1225" data-name="Path 1225" d="M139.659,300.6H123.411a4.169,4.169,0,1,0,0,8.338h16.247a4.169,4.169,0,1,0,0-8.338Z" transform="translate(-112.681 -284.063)" fill="#fe9700"/>
        <path id="Path_1226" data-name="Path 1226" d="M442.249,300.6h-2.8a4.169,4.169,0,1,1,0,8.338h2.8a4.169,4.169,0,1,0,0-8.338Z" transform="translate(-415.272 -284.063)" fill="#fe8e00"/>
        <path id="Path_1227" data-name="Path 1227" d="M139.659,409.318H123.411a4.169,4.169,0,1,0,0,8.338h16.247a4.169,4.169,0,1,0,0-8.338Z" transform="translate(-112.681 -386.797)" fill="#feb200"/>
        <path id="Path_1228" data-name="Path 1228" d="M442.249,409.318h-2.8a4.169,4.169,0,1,1,0,8.338h2.8a4.169,4.169,0,1,0,0-8.338Z" transform="translate(-415.272 -386.797)" fill="#feaa00"/>
        <g id="Group_2383" data-name="Group 2383" transform="translate(17.675 2.396)">
          <line id="Line_25" data-name="Line 25" y2="23.765" transform="translate(1.178 3.52)" fill="#f47c00"/>
          <path id="Path_1229" data-name="Path 1229" d="M323.607,44.94a1.194,1.194,0,1,0-2.357,0V72.016h2.357Z" transform="translate(-321.25 -43.553)" fill="#f47c00"/>
        </g>
      </g>
    </g>
  </g>
</svg>
