<svg xmlns="http://www.w3.org/2000/svg" width="64" height="61" viewBox="0 0 64 61">
  <g id="Group_2378" data-name="Group 2378" transform="translate(-852.75 -1404)">
    <rect id="Rectangle_1881" data-name="Rectangle 1881" width="64" height="59" transform="translate(852.75 1404)" fill="#fff"/>
    <g id="_8168678_credit_card_payment_shopping_icon" data-name="8168678_credit_card_payment_shopping_icon" transform="translate(855 1405)">
      <rect id="Rectangle_1884" data-name="Rectangle 1884" width="60" height="60" rx="10" fill="#fff"/>
      <g id="_2530819_general_group_office_personal_relation_icon" data-name="2530819_general_group_office_personal_relation_icon" transform="translate(8.834 -0.1)">
        <g id="Group_2374" data-name="Group 2374" transform="translate(13.339 12.342)">
          <path id="Path_1198" data-name="Path 1198" d="M38.424,27.494a6.716,6.716,0,1,0-6.715-6.718A6.725,6.725,0,0,0,38.424,27.494Z" transform="translate(-29.699 -14.062)" fill="#f9efe3"/>
          <path id="Path_1199" data-name="Path 1199" d="M41,40.629a7.459,7.459,0,0,1-4.949,1.88,7.592,7.592,0,0,1-4.963-1.848c-.011.007-.123.018-.136.024a5.6,5.6,0,0,0-3.574,4.994V57.757h17.1V45.678A5.52,5.52,0,0,0,41,40.629Z" transform="translate(-27.379 -28.299)" fill="#b0e0d4"/>
        </g>
        <path id="Path_1200" data-name="Path 1200" d="M10.924,36.838v5.877h-7V35.81a3.061,3.061,0,0,1,1.988-2.793A4.791,4.791,0,0,0,8.93,34.08a4.69,4.69,0,0,0,2.837-.955l.561.395A6.071,6.071,0,0,0,10.924,36.838ZM9,33.3a3.843,3.843,0,1,1,3.845-3.843A3.847,3.847,0,0,1,9,33.3Z" transform="translate(-1.473 -7.911)" fill="#e0f1f8"/>
        <path id="Path_1201" data-name="Path 1201" d="M69.169,33.753l.614-.394a4.655,4.655,0,0,0,2.821.954,4.713,4.713,0,0,0,2.986-1.063,3,3,0,0,1,1.927,2.793v6.8h-7V37.071A5.832,5.832,0,0,0,69.169,33.753Zm-.45-4.062a3.843,3.843,0,1,1,3.845,3.844A3.849,3.849,0,0,1,68.719,29.691Z" transform="translate(-36.194 -8.036)" fill="#e0f1f8"/>
        <g id="Group_2376" data-name="Group 2376" transform="translate(1.179 10.853)">
          <g id="Group_2375" data-name="Group 2375">
            <path id="Path_1202" data-name="Path 1202" d="M36.306,27.394a8.271,8.271,0,1,1,8.271-8.272A8.28,8.28,0,0,1,36.306,27.394Zm0-14.209a5.939,5.939,0,1,0,5.939,5.937A5.944,5.944,0,0,0,36.306,13.185Z" transform="translate(-15.571 -10.853)" fill="#454b53"/>
            <path id="Path_1203" data-name="Path 1203" d="M59.172,56.936a1.166,1.166,0,0,1-1.166-1.166V44.04a4.718,4.718,0,0,0-3.062-4.362,1.166,1.166,0,0,1,.97-2.121,7.021,7.021,0,0,1,4.424,6.484V55.77A1.166,1.166,0,0,1,59.172,56.936Z" transform="translate(-29.626 -25.106)" fill="#454b53"/>
            <path id="Path_1204" data-name="Path 1204" d="M25.77,57.026A1.166,1.166,0,0,1,24.6,55.86V44.13a6.953,6.953,0,0,1,4.255-6.4,1.166,1.166,0,0,1,1,2.108,4.59,4.59,0,0,0-2.92,4.292V55.86A1.166,1.166,0,0,1,25.77,57.026Z" transform="translate(-13.732 -25.196)" fill="#454b53"/>
            <path id="Path_1205" data-name="Path 1205" d="M8.619,33.132a5.4,5.4,0,1,1,5.4-5.4A5.4,5.4,0,0,1,8.619,33.132Zm0-8.464a3.065,3.065,0,1,0,3.068,3.065A3.068,3.068,0,0,0,8.619,24.668Z" transform="translate(-2.274 -17.007)" fill="#454b53"/>
            <path id="Path_1206" data-name="Path 1206" d="M2.345,50.648a1.166,1.166,0,0,1-1.166-1.166V42.672a4.48,4.48,0,0,1,2.736-4.2,1.166,1.166,0,0,1,1,2.108,2.175,2.175,0,0,0-1.4,2.091v6.809A1.166,1.166,0,0,1,2.345,50.648Z" transform="translate(-1.179 -25.594)" fill="#454b53"/>
            <path id="Path_1207" data-name="Path 1207" d="M70.721,33.132a5.4,5.4,0,1,1,5.4-5.4A5.4,5.4,0,0,1,70.721,33.132Zm0-8.464a3.065,3.065,0,1,0,3.065,3.065A3.069,3.069,0,0,0,70.721,24.668Z" transform="translate(-35.553 -17.007)" fill="#454b53"/>
            <path id="Path_1208" data-name="Path 1208" d="M84.443,50.6a1.166,1.166,0,0,1-1.166-1.166V42.629a2.2,2.2,0,0,0-1.459-2.122,1.166,1.166,0,0,1,.971-2.12,4.5,4.5,0,0,1,2.82,4.243v6.809A1.166,1.166,0,0,1,84.443,50.6Z" transform="translate(-44.028 -25.551)" fill="#454b53"/>
          </g>
        </g>
      </g>
    </g>
  </g>
</svg>
