<svg xmlns="http://www.w3.org/2000/svg" width="19.335" height="13.051" viewBox="0 0 19.335 13.051">
  <path id="Icon_zocial-email" data-name="Icon zocial-email" d="M.072,15.963V5.224q0-.019.056-.354l6.321,5.407-6.3,6.06a1.58,1.58,0,0,1-.075-.373ZM.911,4.124a.8.8,0,0,1,.317-.056H18.251a1.056,1.056,0,0,1,.336.056L12.247,9.55l-.839.671L9.749,11.582,8.089,10.221,7.25,9.55ZM.93,17.063l6.358-6.1,2.461,1.995,2.461-1.995,6.358,6.1a.9.9,0,0,1-.317.056H1.228a.844.844,0,0,1-.3-.056Zm12.119-6.787,6.3-5.407a1.113,1.113,0,0,1,.056.354V15.963a1.429,1.429,0,0,1-.056.373Z" transform="translate(-0.072 -4.068)" fill="#6c6c6c"/>
</svg>
