<svg xmlns="http://www.w3.org/2000/svg" width="14.94" height="14.94" viewBox="0 0 14.94 14.94">
  <path id="Icon_material-phone-in-talk" data-name="Icon material-phone-in-talk" d="M18.61,14.875a9.429,9.429,0,0,1-2.963-.473.847.847,0,0,0-.847.2l-1.826,1.826a12.488,12.488,0,0,1-5.47-5.47L9.331,9.123a.8.8,0,0,0,.208-.83A9.429,9.429,0,0,1,9.065,5.33a.832.832,0,0,0-.83-.83H5.33a.832.832,0,0,0-.83.83A14.109,14.109,0,0,0,18.61,19.44a.832.832,0,0,0,.83-.83V15.705A.832.832,0,0,0,18.61,14.875Zm-.83-2.905h1.66A7.471,7.471,0,0,0,11.97,4.5V6.16A5.806,5.806,0,0,1,17.78,11.97Zm-3.32,0h1.66a4.152,4.152,0,0,0-4.15-4.15V9.48A2.487,2.487,0,0,1,14.46,11.97Z" transform="translate(-4.5 -4.5)" fill="#6c6c6c"/>
</svg>
